# xmcd
#
# Track frame offsets:
#	150
#	5121
#	24723
#	43087
#	62576
#	80370
#	99898
#	120023
#	137304
#	156221
#	177201
#	198657
#	219388
#
# Disc length: 3185 seconds
#
# Revision: 2
# Processed by: cddbd v1.5.1PL0 Copyright (c) Steve Scherf et al.
# Submitted via: audiograbber 1.83.01
#
DISCID=a00c6f0d
DTITLE=Monica - After The Storm Cd1
DYEAR=2003
DGENRE=Rap
TTITLE0=Intro
TTITLE1=Get It Off
TTITLE2=So Gone
TTITLE3=U Should've Known Better
TTITLE4=Don't Gotta Go Home Feat. Dmx
TTITLE5=Knock Knock
TTITLE6=Breaks My Heart
TTITLE7=I Wrote This Song
TTITLE8=Ain't Gonna Cry No More
TTITLE9=Go To Bed Mad Feat. Tyrese
TTITLE10=Hurts The Most
TTITLE11=That's My Man
TTITLE12=Outro
EXTD=
EXTT0=
EXTT1=
EXTT2=
EXTT3=
EXTT4=
EXTT5=
EXTT6=
EXTT7=
EXTT8=
EXTT9=
EXTT10=
EXTT11=
EXTT12=
PLAYORDER=
